<svg id="Layer_1" data-name="Layer 1" xmlns="http://www.w3.org/2000/svg" viewBox="0 0 1242 1242"><defs><style>.cls-1{fill:#fff;}.cls-2{fill:#3a3a3a;}</style></defs><path class="cls-1" d="M631,419.06s52.89-24.51,52.89-43.09l54-18.66s3.92-22.95,50.73-33.36c0,0,13.52,33.1,3,58.71,0,0,15.21,32.44,33.13,78.87a190.82,190.82,0,0,0,78.77,93.83c65.49,40.07,173.81,127.3,130.88,249.94-5.76,11.51-14.48,21.84-3.54,31.09,11.73,9.92,31.83,11.2,46.38,11.86,77.86,3.54,44.87-103.13,38.3-143.77A245.74,245.74,0,0,1,1121,601.14c8.48-31.19,51.87-70.22,85.84-52.2,6.71,3.56,11.61,11.59,9.24,18.8-2.23,6.79-9.76,10.36-16.82,11.39s-14.38.31-21.28,2.13c-14.71,3.89-24.13,18.35-29.16,32.72-12.43,35.49-6.39,74.54,1,111.42,4.93,24.62,10.45,49.58,8.27,74.59s-13.39,50.65-34.89,63.62c-17.11,10.31-38.15,11.35-58.11,10.6-27.22-1-38.87-10.66-59.54-25.64-19.95,19-52.88,38.76-106.49,46.42H760.64c1.13-57.41,76.92-36.24,76.92-36.24-31.38-29.33-36.3-65.43-36.3-65.43C781,665.84,911.82,700.81,911.82,700.81S820.43,667,795.61,731.27c-27,70,21.44,116.2,21.44,116.2-48.74-3.14-61.31,28.21-64.47,47.52H696s-12.28-44.92,44.39-35.48c0,0,11.61-70.47-17-132.22S671,674.93,702.63,546.91c0,0,11.84-45.18-.2-58.73C702.43,488.18,631,485.33,631,419.06Z"/><path class="cls-2" d="M806.55,560.93c8.69,20.71-5,47.68,8.52,65.63,8,10.67,22.76,13.56,36.1,13.62s27.09-1.86,39.76,2.33c17.84,5.91,33,23.58,51.48,20.22,11-2,19.16-11.1,26.4-19.66l18.06-21.38c-26.79-28.61-58.23-51-83.37-66.33A190.87,190.87,0,0,1,826,464.58c-8.06,10-17.75,18.74-25.33,29.15-8.77,12-14.58,27.93-9.29,41.86C794.88,544.82,802.73,551.83,806.55,560.93Z"/><path class="cls-2" d="M899.05,903.27H760.64a8.29,8.29,0,0,1-4-1,8.23,8.23,0,0,1-4,1H696a8.29,8.29,0,0,1-8-6.1c-.22-.81-5.27-19.92,5.4-33.9,7.79-10.21,21-14.64,39.76-13,1.93-19.69,4.42-72.62-17.3-119.47A328.21,328.21,0,0,0,699,699.55c-21.42-36.11-29.12-54.74-4.45-154.63,4.65-17.78,6.8-39.89,3.12-48.77-28.25-2.7-75-21.38-75-77.09a8.26,8.26,0,0,1,4.8-7.51C653.1,399.66,675.57,383,675.57,376a8.28,8.28,0,0,1,5.57-7.83l50.23-17.34c3.84-8.81,16.24-26.21,55.46-34.93a8.29,8.29,0,0,1,9.46,4.95c.58,1.42,13.55,33.78,4.27,61.5,4.25,9.31,17.25,38.29,31.89,76.22,14.23,36.85,41,68.73,75.37,89.76,69.3,42.39,178.9,132.51,134.38,259.73a10.44,10.44,0,0,1-.41,1c-1,1.93-2,3.84-3,5.71-6.3,11.45-5.68,12.72-2.56,15.35,10,8.5,30.45,9.42,41.41,9.92,14.93.68,25.45-3,32.19-11.25,17.84-21.81,7.8-71.3,1.16-104.05-1.47-7.24-2.73-13.5-3.6-18.88A255,255,0,0,1,1113,599c8.07-29.68,42-62.87,75.32-62.87a47.2,47.2,0,0,1,22.39,5.54c9.35,5,17.17,16.7,13.23,28.7-2.94,8.92-11.72,15.28-23.5,17a92.06,92.06,0,0,1-9.54.75,52.59,52.59,0,0,0-10.81,1.19c-13.79,3.64-21,20.4-23.47,27.44-11.82,33.77-5.83,71.41,1.32,107.06l.9,4.51c4.74,23.48,9.64,47.75,7.5,72.43-2.67,30.75-17.2,56.92-38.86,70-17.81,10.75-38.7,12-52.87,12-3.29,0-6.58-.07-9.84-.2-27.17-1-40.8-10.28-58.64-23.25-26.38,22.9-62,37.68-105.9,43.95A7.68,7.68,0,0,1,899.05,903.27ZM769.71,886.7H898.46c43.09-6.24,77.2-21.09,101.37-44.13a8.28,8.28,0,0,1,10.57-.71l3.47,2.53c18.3,13.33,28.38,20.67,51.52,21.54,3,.12,6.13.19,9.21.19,19.37,0,33.45-3,44.31-9.61,17.15-10.34,28.71-31.74,30.93-57.23,1.93-22.3-2.73-45.39-7.24-67.73l-.91-4.53c-1.75-8.69-3.41-17.41-4.78-26.18-1.1-7.06-.31-18-5.29-23.57l-9-.22a2.12,2.12,0,0,0-1.43.29,2.16,2.16,0,0,0-.62,1.57c-.78,8.12,1.81,16.28,3.1,24.25.82,5.06,2.06,11.16,3.49,18.23,7.27,35.81,18.24,89.93-4.56,117.82-9.45,11.55-23.47,17.41-41.69,17.41q-2,0-4.08-.09c-17.9-.82-38.11-2.62-51.36-13.82-14.37-12.15-6.47-26.49-1.25-36,.84-1.54,1.7-3.09,2.5-4.67,40.21-116-62.62-199.91-127.56-239.63-37.46-22.92-66.65-57.7-82.18-97.92-17.59-45.59-32.75-78-32.9-78.34a8.28,8.28,0,0,1-.16-6.67c6.51-15.8,2.3-35.51-.71-45.67-30.69,8.57-30.71,35.2-30.5,63a25.36,25.36,0,0,1-1.11,9.11c-1.09,2.88-3.43,5.48-6.47,6a10.7,10.7,0,0,1-5.77-.92c-5-2-9.17-5.64-13.24-9.19L712,389.45c-2.92-2.54-5.9-5.13-9.46-6.65-12.41-5.29-21.26,14.5-30.16,21.45-10.11,7.89-21.46,14.29-33,19.95,3.52,52.44,60.85,55.59,63.37,55.71a8.31,8.31,0,0,1,5.84,2.77c14.26,16.05,4.19,58.07,2,66.33-24,97.16-15.65,111.25,2.65,142.1a342.66,342.66,0,0,1,17.63,32.7c29.35,63.34,18.15,134.07,17.65,137.05a8.27,8.27,0,0,1-9.53,6.82c-16.23-2.71-27.5-.77-32.41,5.58-2.94,3.82-3.58,9.15-3.43,13.44h42.64c6.79-27.17,26-43.87,54.07-47.14-13.62-19.74-32.09-59.28-12-111.27,11.28-29.22,36.57-44.66,73.13-44.66,14.2,0,37.72.53,50.39,8.29,11.41,7,23.29,28.26,16.55,41.51-5.48,10.79-19.37,13.19-30.58,17.73-4.73,1.92-9.63,4.89-11.1,9.77-1.53,5.05,1.08,10.75-.8,15.68-1.19,3.14-4,5.37-6.9,7.08a42.43,42.43,0,0,1-19.48,5.87c-8.42.42-17.44-1.57-24.92,2.33C825,796.69,822,809,824.65,819.05c.91,3.43,36.32,54.79,10.68,47.68a115.24,115.24,0,0,0-27.23-3.51C779.3,863.22,771.75,876.63,769.71,886.7Z"/><path class="cls-2" d="M631,518a1.66,1.66,0,0,1-1.65-1.57c-1.88-34.47,25.83-69.31,27-70.77a1.66,1.66,0,1,1,2.59,2.07c-.29.35-28.1,35.33-26.3,68.52a1.65,1.65,0,0,1-1.56,1.74Z"/><path class="cls-2" d="M657.61,520.93a1.66,1.66,0,0,1-1.62-1.34c-6.51-33.14,8.3-71.88,8.94-73.51a1.65,1.65,0,1,1,3.08,1.19c-.15.39-15.09,39.5-8.77,71.68a1.66,1.66,0,0,1-1.3,1.95Z"/><path class="cls-2" d="M684.18,518a1.65,1.65,0,0,1-1.41-.78c-13.82-22.21-8.16-68.76-7.91-70.73a1.68,1.68,0,0,1,1.85-1.44,1.66,1.66,0,0,1,1.44,1.85c-.06.47-5.77,47.36,7.43,68.57a1.66,1.66,0,0,1-.53,2.28A1.62,1.62,0,0,1,684.18,518Z"/><path class="cls-1" d="M604.72,419.06S551.83,394.55,551.83,376l-54-18.66s-3.92-22.95-50.74-33.36c0,0-13.51,33.1-3,58.71,0,0-15.21,32.44-33.13,78.87a190.82,190.82,0,0,1-78.77,93.83C266.69,595.43,158.37,682.66,201.3,805.3c5.76,11.51,14.48,21.84,3.54,31.09-11.73,9.92-31.83,11.2-46.39,11.86-77.85,3.54-44.86-103.13-38.29-143.77a245.74,245.74,0,0,0-5.46-103.34c-8.49-31.19-51.87-70.22-85.84-52.2-6.71,3.56-11.61,11.59-9.24,18.8,2.23,6.79,9.76,10.36,16.82,11.39s14.38.31,21.28,2.13c14.71,3.89,24.13,18.35,29.16,32.72,12.43,35.49,6.39,74.54-1,111.42C80.93,750,75.42,775,77.6,800S91,850.64,112.49,863.61c17.11,10.31,38.15,11.35,58.11,10.6,27.22-1,38.87-10.66,59.54-25.64,20,19,52.88,38.76,106.49,46.42H475c-1.13-57.41-76.92-36.24-76.92-36.24,31.38-29.33,36.3-65.43,36.3-65.43,20.31-127.48-110.56-92.51-110.56-92.51s91.38-33.85,116.2,30.46c27,70-21.43,116.2-21.43,116.2,48.74-3.14,61.31,28.21,64.46,47.52h56.57s12.28-44.92-44.39-35.48c0,0-11.61-70.47,17-132.22s52.41-52.36,20.78-180.38c0,0-11.85-45.18.2-58.73C533.25,488.18,604.72,485.33,604.72,419.06Z"/><path class="cls-2" d="M429.13,560.93c-8.69,20.71,5,47.68-8.52,65.63-8,10.67-22.76,13.56-36.1,13.62s-27.09-1.86-39.76,2.33c-17.85,5.91-33,23.58-51.48,20.22-11-2-19.17-11.1-26.4-19.66l-18.06-21.38c26.78-28.61,58.23-51,83.37-66.33a190.92,190.92,0,0,0,77.51-90.78c8.06,10,17.75,18.74,25.33,29.15,8.77,12,14.58,27.93,9.28,41.86C440.8,544.82,433,551.83,429.13,560.93Z"/><path class="cls-2" d="M335.46,903.18c-43.94-6.27-79.52-21-105.9-43.95-17.84,13-31.47,22.23-58.65,23.25-3.25.13-6.54.2-9.83.2-14.17,0-35.06-1.24-52.87-12-21.66-13.06-36.2-39.23-38.86-70-2.15-24.68,2.76-49,7.49-72.43l.91-4.51c7.15-35.65,13.14-73.29,1.32-107.06-2.47-7-9.68-23.8-23.47-27.44a52.59,52.59,0,0,0-10.81-1.19,92.06,92.06,0,0,1-9.54-.75c-11.78-1.72-20.57-8.08-23.5-17-3.94-12,3.88-23.74,13.23-28.7a47.2,47.2,0,0,1,22.39-5.54c33.32,0,67.25,33.19,75.32,62.87a255,255,0,0,1,5.64,106.84c-.87,5.38-2.13,11.64-3.6,18.88-6.64,32.75-16.68,82.24,1.15,104.05,6.75,8.25,17.27,11.93,32.2,11.25,11-.5,31.37-1.42,41.41-9.92,3.12-2.63,3.74-3.9-2.56-15.35-1-1.87-2.07-3.78-3-5.71a8.29,8.29,0,0,1-.41-1C149,680.81,258.56,590.69,327.86,548.3c34.37-21,61.14-52.91,75.37-89.76,14.64-37.93,27.64-66.91,31.89-76.22-9.28-27.72,3.69-60.08,4.27-61.5a8.29,8.29,0,0,1,9.46-4.95c39.22,8.72,51.62,26.12,55.46,34.93l50.23,17.34a8.3,8.3,0,0,1,5.57,7.83c0,7.06,22.47,23.69,48.09,35.58a8.26,8.26,0,0,1,4.8,7.51c0,55.71-46.78,74.39-75,77.09-3.68,8.88-1.53,31,3.12,48.77,24.67,99.89,17,118.52-4.45,154.63a326,326,0,0,0-16.85,31.23c-21.72,46.85-19.23,99.78-17.3,119.47,18.73-1.62,32,2.81,39.76,13,10.67,14,5.62,33.09,5.4,33.9a8.29,8.29,0,0,1-8,6.1H483.1a8.23,8.23,0,0,1-4-1,8.29,8.29,0,0,1-4,1H336.63A7.68,7.68,0,0,1,335.46,903.18Zm92.12-40a115.38,115.38,0,0,0-27.24,3.51c-25.63,7.11,9.78-44.25,10.69-47.68,2.66-10-.35-22.36-9.54-27.16C394,788,385,790,376.58,789.56a42.43,42.43,0,0,1-19.48-5.87c-2.89-1.71-5.71-3.94-6.9-7.08-1.88-4.93.73-10.63-.8-15.68-1.47-4.88-6.37-7.85-11.1-9.77-11.21-4.54-25.1-6.94-30.58-17.73-6.74-13.25,5.14-34.52,16.55-41.51,12.67-7.76,36.19-8.29,50.39-8.29,36.56,0,61.85,15.44,73.13,44.66,20.07,52,1.6,91.53-12,111.27,28.07,3.27,47.28,20,54.07,47.14h42.64c.15-4.29-.49-9.62-3.44-13.44-4.9-6.35-16.17-8.29-32.4-5.58a8.27,8.27,0,0,1-9.54-6.82c-.49-3-11.69-73.71,17.66-137.05a342.66,342.66,0,0,1,17.63-32.7C540.69,660.26,549,646.17,525,549c-2.17-8.26-12.24-50.28,2-66.33a8.31,8.31,0,0,1,5.84-2.77c2.52-.12,59.84-3.27,63.37-55.71-11.5-5.66-22.84-12.06-33-19.95-8.9-6.95-17.74-26.74-30.15-21.45-3.56,1.52-6.54,4.11-9.46,6.65l-14.16,12.36c-4.07,3.55-8.23,7.16-13.24,9.19a10.72,10.72,0,0,1-5.78.92c-3-.54-5.37-3.14-6.46-6a25.36,25.36,0,0,1-1.11-9.11c.21-27.76.18-54.39-30.51-63-3,10.16-7.21,29.87-.7,45.67a8.28,8.28,0,0,1-.16,6.67c-.15.33-15.31,32.75-32.91,78.34-15.52,40.22-44.71,75-82.17,97.92-64.94,39.72-167.77,123.65-127.56,239.63.8,1.58,1.66,3.13,2.5,4.67,5.22,9.49,13.11,23.83-1.25,36-13.25,11.2-33.46,13-51.36,13.82q-2.09.09-4.08.09c-18.22,0-32.25-5.86-41.69-17.41-22.8-27.89-11.83-82-4.56-117.82,1.43-7.07,2.67-13.17,3.49-18.23,1.29-8,3.88-16.13,3.1-24.25a2.16,2.16,0,0,0-.62-1.57,2.13,2.13,0,0,0-1.43-.29l-9,.22c-5,5.62-4.19,16.51-5.29,23.57-1.37,8.77-3,17.49-4.78,26.18l-.91,4.53c-4.51,22.34-9.17,45.43-7.24,67.73,2.22,25.49,13.78,46.89,30.93,57.23,10.86,6.56,24.94,9.61,44.31,9.61,3.08,0,6.16-.07,9.21-.19,23.14-.87,33.22-8.21,51.51-21.54l3.48-2.53a8.28,8.28,0,0,1,10.57.71c24.17,23,58.27,37.89,101.37,44.13H466C463.93,876.63,456.38,863.22,427.58,863.22Z"/><path class="cls-2" d="M604.72,518a1.66,1.66,0,0,0,1.65-1.57c1.88-34.47-25.84-69.31-27-70.77a1.65,1.65,0,1,0-2.58,2.07c.28.35,28.1,35.33,26.3,68.52a1.65,1.65,0,0,0,1.56,1.74Z"/><path class="cls-2" d="M578.07,520.93a1.66,1.66,0,0,0,1.62-1.34c6.51-33.14-8.3-71.88-8.94-73.51a1.65,1.65,0,1,0-3.08,1.19c.15.39,15.09,39.5,8.77,71.68a1.66,1.66,0,0,0,1.3,1.95Z"/><path class="cls-2" d="M551.5,518a1.65,1.65,0,0,0,1.41-.78c13.82-22.21,8.16-68.76,7.91-70.73A1.68,1.68,0,0,0,559,445a1.66,1.66,0,0,0-1.44,1.85c.06.47,5.77,47.36-7.43,68.57a1.65,1.65,0,0,0,.53,2.28A1.62,1.62,0,0,0,551.5,518Z"/><rect class="cls-2" x="10.71" y="929.71" width="1214.27" height="22.74"/></svg>